<?xml version="1.0" encoding="UTF-8"?>
<svg id="Design" xmlns="http://www.w3.org/2000/svg" xmlns:xlink="http://www.w3.org/1999/xlink" viewBox="0 0 854.3 885.67">
  <defs>
    <style>
      .cls-1 {
        fill: url(#linear-gradient);
      }

      .cls-1, .cls-2, .cls-3 {
        stroke-width: 0px;
      }

      .cls-2 {
        fill: url(#linear-gradient-2);
      }

      .cls-3 {
        fill: #fff;
      }
    </style>
    <linearGradient id="linear-gradient" x1="260.22" y1="841.05" x2="601.9" y2="71.03" gradientUnits="userSpaceOnUse">
      <stop offset="0" stop-color="#33946c"/>
      <stop offset="1" stop-color="#79b67a"/>
    </linearGradient>
    <linearGradient id="linear-gradient-2" x1="8.67" y1="154.91" x2="279.43" y2="154.91" xlink:href="#linear-gradient"/>
  </defs>
  <path class="cls-1" d="m816.07,567.77c-105.93,152.25-233.11,188.65-321.16,192.39-109.01,4.7-208.65-37.85-276.33-91.76-19.88-15.83-19.87-45.98.15-61.62,42.13-32.89,77.79-73.07,112.6-112.3,77.08-86.83,149.88-168.85,285.36-176.72,29.07-1.7,55.46,13.33,68.9,39.2,13.2,25.41,10.39,55.08-7.33,77.43-27.11,34.18-126.38,144.18-288.12,157.53-7.82.64-13.9,7.06-14.07,14.9h0c-.17,8.19,6.14,15.02,14.31,15.6,99.81,7.17,186.24-5.28,257.06-37.07,68.73-30.85,120.03-79.19,148.37-139.77,47.28-101.1,23.46-220.8-60.68-304.94-168.12-168.13-431.53-168.12-599.66,0-165.32,165.33-165.32,434.34,0,599.66,80.09,80.09,186.57,124.19,299.83,124.19s219.74-44.1,299.83-124.19c50.16-50.15,87.84-106.88,106.1-159.74h0c5.41-15.65-15.71-26.38-25.17-12.8h0Zm-670.54-69.01c-22-8.66-45.21-30.7-44.34-66.56,2.08-86.28,36.75-167.33,97.63-228.21h0c64.17-64.17,148.16-99.52,236.49-99.52,74.78,0,146.45,25.34,205.63,72.06.16.13.32.26.5.4,20.71,16.77,9.16,50.02-17.48,50.79-180.23,5.21-274.77,111.7-359.62,207.29l-39.94,45c-24.15,27.21-56.58,27.53-78.86,18.75Z"/>
  <circle class="cls-2" cx="144.05" cy="154.91" r="135.38"/>
  <g>
    <path class="cls-3" d="m67.69,104.65h43.5c14.06,0,23.78,3.68,29.96,9.99,5.39,5.26,8.15,12.36,8.15,21.42v.26c0,14.06-7.49,23.39-18.92,28.26l21.95,32.07h-29.44l-18.53-27.86h-11.17v27.86h-25.5v-91.99Zm42.32,44.16c8.67,0,13.67-4.21,13.67-10.91v-.26c0-7.23-5.26-10.91-13.8-10.91h-16.69v22.08h16.82Z"/>
    <path class="cls-3" d="m151.55,125.55h24.97v9.46c4.86-5.91,10.91-11.04,21.55-11.04,16.95,0,31.54,14.06,31.54,36.8v.26c0,23.13-14.59,37.19-31.41,37.19-10.78,0-17.09-4.86-21.68-10.25v29.7h-24.97v-92.13Zm53.49,35.61v-.26c0-9.33-6.44-16.03-14.59-16.03s-14.46,6.7-14.46,16.03v.26c0,9.46,6.44,16.17,14.46,16.17s14.59-6.57,14.59-16.17Z"/>
  </g>
</svg>